<?xml version="1.0" standalone="no"?>
<!DOCTYPE svg PUBLIC "-//W3C//DTD SVG 20010904//EN"
 "http://www.w3.org/TR/2001/REC-SVG-20010904/DTD/svg10.dtd">
<svg version="1.0" xmlns="http://www.w3.org/2000/svg"
 width="137.000000pt" height="134.000000pt" viewBox="0 0 137.000000 134.000000"
 preserveAspectRatio="xMidYMid meet">

<g transform="translate(0.000000,134.000000) scale(0.100000,-0.100000)"
fill="#ff6b6b" stroke="none">
<path d="M618 1290 c-136 -24 -241 -77 -333 -167 -71 -70 -109 -126 -146 -219
-68 -170 -60 -343 23 -514 75 -154 231 -282 398 -325 77 -20 225 -23 301 -5
123 28 275 126 352 225 78 102 137 268 137 384 0 77 -30 194 -71 280 -74 154
-231 285 -388 326 -76 20 -209 27 -273 15z m352 -170 c104 -53 205 -185 244
-319 48 -164 -7 -363 -135 -492 -61 -61 -175 -125 -241 -136 l-38 -6 0 127 0
126 71 0 c39 0 79 5 90 10 33 18 49 64 49 144 l0 75 36 3 c62 5 64 24 11 128
-28 55 -47 105 -47 125 0 47 -35 153 -65 198 -30 43 -28 44 25 17z"/>
</g>
</svg>
